<svg xmlns="http://www.w3.org/2000/svg" viewBox="0 0 52 44" width="52" height="44">
	<style>
		tspan { white-space:pre }
		.shp0 { fill: #fff8db } 
	</style>
	<g id="Homes in Tulum">
		<g id="Group 4">
			<path id="Forma 1431" class="shp0" d="M52 21.5C52 21.77 51.89 22.02 51.71 22.21L37.35 36.71C29.05 45.1 15.53 45.1 7.23 36.71C-1.08 28.32 -1.08 14.68 7.23 6.29C15.53 -2.09 29.05 -2.09 37.35 6.29L41.4 10.38C41.79 10.77 41.79 11.41 41.4 11.8C41.01 12.2 40.38 12.2 39.99 11.8L35.94 7.72C28.41 0.11 16.16 0.11 8.64 7.72C1.11 15.32 1.11 27.69 8.64 35.29C16.16 42.89 28.41 42.89 35.94 35.29L49.59 21.5L45.38 17.25C45 16.86 45 16.22 45.38 15.83C45.77 15.44 46.4 15.44 46.79 15.83L51.71 20.79C51.89 20.98 52 21.23 52 21.5ZM44.24 13.66C44.24 13.93 44.13 14.19 43.94 14.37C43.76 14.56 43.5 14.67 43.24 14.67C42.98 14.67 42.72 14.56 42.54 14.37C42.35 14.19 42.24 13.93 42.24 13.66C42.24 13.4 42.35 13.14 42.54 12.95C42.72 12.76 42.98 12.66 43.24 12.66C43.5 12.66 43.76 12.76 43.94 12.95C44.13 13.14 44.24 13.4 44.24 13.66ZM31.06 21.5C31.06 21.67 31.02 21.83 30.94 21.98C30.9 22.07 29.82 24.05 28.17 26.06C25.84 28.91 23.59 30.35 21.48 30.35C18.36 30.35 15.81 27.86 15.81 24.8C15.81 23.61 16.21 22.45 16.93 21.5C16.21 20.55 15.81 19.39 15.81 18.2C15.81 15.14 18.36 12.66 21.48 12.66C23.59 12.66 25.84 14.1 28.17 16.94C29.82 18.95 30.9 20.94 30.94 21.02C31.02 21.17 31.06 21.34 31.06 21.5ZM17.81 24.8C17.81 26.75 19.45 28.33 21.48 28.33C24.33 28.33 27.59 23.78 28.92 21.5C27.59 19.22 24.33 14.67 21.48 14.67C19.45 14.67 17.81 16.25 17.81 18.2C17.81 19.18 18.21 20.08 18.94 20.76C19.15 20.95 19.27 21.22 19.27 21.5C19.27 21.78 19.15 22.05 18.94 22.24C18.21 22.92 17.81 23.83 17.81 24.8ZM37.11 21.5C37.11 25.5 35.57 29.25 32.77 32.08C27 37.91 17.6 37.91 11.82 32.08C9.5 29.74 8.04 26.76 7.61 23.48C7.19 20.31 7.81 17.03 9.34 14.24C9.6 13.76 10.21 13.58 10.69 13.85C11.17 14.12 11.35 14.73 11.08 15.22C8.32 20.24 9.2 26.59 13.23 30.66C18.23 35.71 26.36 35.71 31.36 30.66C33.79 28.21 35.12 24.96 35.12 21.5C35.12 18.04 33.79 14.79 31.36 12.35C27.32 8.27 21.03 7.38 16.05 10.19C15.56 10.46 14.96 10.29 14.69 9.8C14.42 9.32 14.59 8.71 15.07 8.43C17.83 6.88 21.09 6.25 24.24 6.67C27.5 7.1 30.45 8.57 32.77 10.92C35.57 13.75 37.11 17.51 37.11 21.5ZM13.56 11.6C13.56 11.86 13.46 12.12 13.26 12.31L13.23 12.34C12.84 12.74 12.21 12.74 11.82 12.35C11.43 11.96 11.43 11.32 11.82 10.93L11.86 10.88C12.25 10.49 12.88 10.5 13.27 10.89C13.46 11.09 13.56 11.34 13.56 11.6Z" />
		</g>
	</g>
</svg>