<svg xmlns="http://www.w3.org/2000/svg" viewBox="0 0 51 50" width="51" height="50">
	<style>
		tspan { white-space:pre }
		.shp0 { fill: #ffffff } 
	</style>
	<g id="heading">
		<path id="Forma 1445" class="shp0" d="M21.36 8.24C19.92 8.24 18.75 9.39 18.75 10.81C18.75 12.23 19.92 13.38 21.36 13.38C24.55 13.38 27.39 15.13 28.79 17.96C29.24 18.87 30.17 19.4 31.14 19.4C31.52 19.4 31.91 19.32 32.28 19.14C33.57 18.52 34.11 16.98 33.48 15.71C31.2 11.1 26.56 8.24 21.36 8.24ZM49.42 43.53L40.73 34.97C43.3 31.4 44.83 27.06 44.83 22.36C44.83 10.32 34.88 0.52 22.66 0.52C10.43 0.52 0.49 10.32 0.49 22.36C0.49 34.4 10.43 44.2 22.66 44.2C27.77 44.2 32.46 42.47 36.21 39.6L44.81 48.07C45.45 48.7 46.28 49.01 47.12 49.01C47.95 49.01 48.78 48.7 49.42 48.07C50.69 46.82 50.69 44.79 49.42 43.53ZM5.71 22.36C5.71 13.15 13.31 5.66 22.66 5.66C32.01 5.66 39.62 13.15 39.62 22.36C39.62 26.19 38.29 29.71 36.07 32.54C35.34 33.47 34.52 34.33 33.61 35.09C30.65 37.56 26.83 39.06 22.66 39.06C13.31 39.06 5.71 31.57 5.71 22.36Z" />
	</g>
</svg>