<svg xmlns="http://www.w3.org/2000/svg" viewBox="0 0 11 11" width="11" height="11">
	<style>
		tspan { white-space:pre }
		.shp0 { fill: #ebebeb } 
	</style>
	<g id="header">
		<g id="see map">
			<path id="Shape 922" class="shp0" d="M5.81 5.16L9.98 0.96C10.17 0.77 10.17 0.44 9.98 0.25C9.78 0.05 9.46 0.05 9.27 0.25L5.1 4.45L0.92 0.25C0.73 0.05 0.41 0.05 0.21 0.25C0.02 0.44 0.02 0.77 0.21 0.96L4.38 5.16L0.21 9.36C0.02 9.56 0.02 9.88 0.21 10.08C0.31 10.18 0.44 10.23 0.57 10.23C0.7 10.23 0.83 10.18 0.92 10.08L5.1 5.88L9.27 10.08C9.36 10.18 9.49 10.23 9.62 10.23C9.75 10.23 9.88 10.18 9.98 10.08C10.17 9.88 10.17 9.56 9.98 9.36L5.81 5.16Z" />
		</g>
	</g>
</svg>